<svg xmlns="http://www.w3.org/2000/svg" xmlns:xlink="http://www.w3.org/1999/xlink" id="Layer_1" width="512" height="512" x="0" y="0" enable-background="new 0 0 512 512" version="1.1" viewBox="0 0 512 512" xml:space="preserve"><style type="text/css">.st0{fill:none}.st1{fill:#010101}</style><g><path d="M256,32c-52.9,0-96,43.1-96,96h192C352,75.1,308.9,32,256,32z" class="st0"/><path d="M512,128H384C384,57.3,326.7,0,256,0S128,57.3,128,128H0c23,268,16,384,16,384h480C496,512,489,393,512,128z M256,32c52.9,0,96,43.1,96,96H160C160,75.1,203.1,32,256,32z M192,432V224l176,104L192,432z" class="st1"/></g></svg>