<svg xmlns="http://www.w3.org/2000/svg" xmlns:xlink="http://www.w3.org/1999/xlink" id="Layer_1" width="512" height="512" x="0" y="0" enable-background="new 0 0 512 512" version="1.1" viewBox="0 0 512 512" xml:space="preserve"><g><path d="M304,368c-4.1,0-8.2-1.6-11.3-4.7c-6.2-6.2-6.2-16.4,0-22.6l84.7-84.7l-84.7-84.7c-6.2-6.2-6.2-16.4,0-22.6 c6.2-6.2,16.4-6.2,22.6,0l96,96c6.2,6.2,6.2,16.4,0,22.6l-96,96C312.2,366.4,308.1,368,304,368z"/><path d="M208,368c4.1,0,8.2-1.6,11.3-4.7c6.2-6.2,6.2-16.4,0-22.6L134.6,256l84.7-84.7c6.2-6.2,6.2-16.4,0-22.6 c-6.2-6.2-16.4-6.2-22.6,0l-96,96c-6.2,6.2-6.2,16.4,0,22.6l96,96C199.8,366.4,203.9,368,208,368z"/></g></svg>